<svg width="43" height="31" viewBox="0 0 43 31" fill="none" xmlns="http://www.w3.org/2000/svg">
<g clip-path="url(#clip0_916_268)">
<path d="M25.9167 25.9167C25.9167 25.2917 26.125 24.875 26.5417 24.4583L36.9583 14.0417C37.7917 13.2083 39.0417 13.2083 39.875 14.0417C40.7083 14.875 40.7083 16.125 39.875 16.9583L29.4583 27.375C28.625 28.2083 27.375 28.2083 26.5417 27.375C26.125 26.9583 25.9167 26.5417 25.9167 25.9167V25.9167Z" fill="white"/>
<path d="M25.9167 5.08333C25.9167 4.45833 26.125 4.04167 26.5417 3.625C27.375 2.79167 28.625 2.79167 29.4583 3.625L39.875 14.0417C40.7083 14.875 40.7083 16.125 39.875 16.9583C39.0417 17.7917 37.7917 17.7917 36.9583 16.9583L26.5417 6.54167C26.125 6.125 25.9167 5.70833 25.9167 5.08333V5.08333Z" fill="white"/>
<path d="M3 15.5C3 14.25 3.83333 13.4167 5.08333 13.4167L38.4167 13.4167C39.6667 13.4167 40.5 14.25 40.5 15.5C40.5 16.75 39.6667 17.5833 38.4167 17.5833H5.08333C3.83333 17.5833 3 16.75 3 15.5Z" fill="white"/>
</g>
<defs>
<clipPath id="clip0_916_268">
<rect width="43" height="31" fill="white"/>
</clipPath>
</defs>
</svg>
