<svg viewBox="0 0 50.01 50" xmlns="http://www.w3.org/2000/svg"><g fill="none" stroke-linecap="round" stroke-width="2"><g stroke="#2088ff"><path d="m17 21-3.4 3.4a.85.85 0 0 0 0 1.2l3.4 3.4m17-8 3.4 3.4a.85.85 0 0 1 0 1.2l-3.4 3.4" stroke-linejoin="round"/><path d="m28 18.05-5 14.01"/></g><g stroke="#79b8ff"><path d="m20 7h9" stroke-linejoin="round"/><path d="m23 44h5m-23-31h16m9 0h15.73m-40.73 25h13" stroke-linejoin="round"/><path d="m2 32a24.24 24.24 0 0 0 2.81 6m43.38-19.1a23.45 23.45 0 0 0 -2.4-5.9"/></g><g stroke="#2088ff"><path d="m23 38h17" stroke-linejoin="round"/><path d="m4.18 13a24.53 24.53 0 0 0 -3.18 12m38.61 19a24 24 0 0 0 7.29-9.18 24.43 24.43 0 0 0 2.1-9.82"/><path d="m4.23 13h20.77m-14.66 31h7.66" stroke-linejoin="round"/><path d="m10.34 44a23.88 23.88 0 0 0 6.19 3.45 24.7 24.7 0 0 0 7.21 1.55 24.36 24.36 0 0 0 7.3-.74"/><path d="m33 44h6.65m-30.65-37h6m19 0h6.86" stroke-linejoin="round"/><path d="m40.85 7a24 24 0 0 0 -16-6 22.54 22.54 0 0 0 -6.8 1"/></g><path d="m2 32h5m37-13h4.19" stroke="#79b8ff" stroke-linejoin="round"/></g></svg>