<svg width="41" height="40" viewBox="0 0 41 40" fill="none" xmlns="http://www.w3.org/2000/svg">
<path d="M35 20C35 26.6274 29.6274 32 23 32C16.3726 32 11 26.6274 11 20C11 13.3726 16.3726 8 23 8C29.6274 8 35 13.3726 35 20Z" fill="#FAB73B" fill-opacity="0.4"/>
<path fill-rule="evenodd" clip-rule="evenodd" d="M2.16406 3.33464C2.16406 2.6903 2.6864 2.16797 3.33073 2.16797H19.9974C20.6417 2.16797 21.1641 2.6903 21.1641 3.33464C21.1641 3.97897 20.6417 4.5013 19.9974 4.5013H3.33073C2.6864 4.5013 2.16406 3.97897 2.16406 3.33464Z" fill="#1A181E"/>
<path fill-rule="evenodd" clip-rule="evenodd" d="M2.16406 10.0016C2.16406 9.3573 2.6864 8.83496 3.33073 8.83496H9.9974C10.6417 8.83496 11.1641 9.3573 11.1641 10.0016C11.1641 10.646 10.6417 11.1683 9.9974 11.1683H3.33073C2.6864 11.1683 2.16406 10.646 2.16406 10.0016Z" fill="#1A181E"/>
<path fill-rule="evenodd" clip-rule="evenodd" d="M2.16406 16.6676C2.16406 16.0233 2.6864 15.501 3.33073 15.501H6.66406C7.30839 15.501 7.83073 16.0233 7.83073 16.6676C7.83073 17.312 7.30839 17.8343 6.66406 17.8343H3.33073C2.6864 17.8343 2.16406 17.312 2.16406 16.6676Z" fill="#1A181E"/>
<path fill-rule="evenodd" clip-rule="evenodd" d="M2.16406 23.3346C2.16406 22.6903 2.6864 22.168 3.33073 22.168H6.66406C7.30839 22.168 7.83073 22.6903 7.83073 23.3346C7.83073 23.979 7.30839 24.5013 6.66406 24.5013H3.33073C2.6864 24.5013 2.16406 23.979 2.16406 23.3346Z" fill="#1A181E"/>
<path fill-rule="evenodd" clip-rule="evenodd" d="M12.7526 20C12.7526 14.155 17.4909 9.41667 23.3359 9.41667C29.181 9.41667 33.9193 14.155 33.9193 20C33.9193 25.845 29.181 30.5833 23.3359 30.5833C17.4909 30.5833 12.7526 25.845 12.7526 20ZM23.3359 7.25C16.2943 7.25 10.5859 12.9584 10.5859 20C10.5859 27.0416 16.2943 32.75 23.3359 32.75C26.0677 32.75 28.5988 31.8909 30.6738 30.4281C30.7265 30.5508 30.803 30.6658 30.9032 30.766L36.0366 35.8994C36.4596 36.3224 37.1456 36.3224 37.5686 35.8994C37.9917 35.4763 37.9917 34.7904 37.5686 34.3673L32.4353 29.234C32.3835 29.1821 32.3277 29.1366 32.2689 29.0975C34.6247 26.784 36.0859 23.5627 36.0859 20C36.0859 12.9584 30.3776 7.25 23.3359 7.25Z" fill="#1A181E"/>
</svg>
