<?xml version="1.0" encoding="UTF-8"?>
<svg xmlns="http://www.w3.org/2000/svg" xmlns:xlink="http://www.w3.org/1999/xlink" viewBox="0 0 90 90" width="90px" height="90px">
<g id="surface123882185">
<path style=" stroke:none;fill-rule:nonzero;fill:rgb(9.411765%,16.078432%,45.09804%);fill-opacity:1;" d="M 45 9 C 25.117188 9 9 25.117188 9 45 C 9 51.753906 10.898438 58.050781 14.132812 63.449219 L 9.320312 81 L 27.246094 76.292969 C 32.488281 79.273438 38.539062 81 45 81 C 64.882812 81 81 64.882812 81 45 C 81 25.117188 64.882812 9 45 9 Z M 32.675781 28.207031 C 33.261719 28.207031 33.863281 28.203125 34.382812 28.230469 C 35.023438 28.246094 35.722656 28.292969 36.390625 29.769531 C 37.1875 31.53125 38.917969 35.941406 39.140625 36.386719 C 39.363281 36.832031 39.519531 37.359375 39.210938 37.945312 C 38.917969 38.546875 38.765625 38.910156 38.332031 39.4375 C 37.886719 39.957031 37.394531 40.597656 36.988281 40.984375 C 36.542969 41.433594 36.082031 41.921875 36.597656 42.8125 C 37.113281 43.707031 38.90625 46.625 41.554688 48.984375 C 44.960938 52.027344 47.832031 52.960938 48.726562 53.40625 C 49.621094 53.855469 50.136719 53.785156 50.652344 53.183594 C 51.183594 52.601562 52.882812 50.59375 53.484375 49.699219 C 54.070312 48.804688 54.667969 48.960938 55.476562 49.253906 C 56.296875 49.546875 60.683594 51.707031 61.574219 52.152344 C 62.46875 52.601562 63.054688 52.824219 63.28125 53.183594 C 63.511719 53.558594 63.511719 55.347656 62.769531 57.425781 C 62.03125 59.507812 58.390625 61.515625 56.757812 61.65625 C 55.113281 61.8125 53.574219 62.398438 46.054688 59.4375 C 36.984375 55.863281 31.261719 46.574219 30.8125 45.972656 C 30.367188 45.386719 27.179688 41.140625 27.179688 36.761719 C 27.179688 32.367188 29.484375 30.214844 30.292969 29.320312 C 31.113281 28.425781 32.078125 28.207031 32.675781 28.207031 Z M 32.675781 28.207031 "/>
</g>
</svg>
